<svg width="500" height="500" viewBox="0 0 500 500" fill="none" xmlns="http://www.w3.org/2000/svg">
<path fill-rule="evenodd" clip-rule="evenodd" d="M250 500C388.071 500 500 388.071 500 250C500 111.929 388.071 0 250 0C111.929 0 0 111.929 0 250C0 388.071 111.929 500 250 500ZM375.213 142.537C390.003 157.116 398.756 176.531 399.863 197.206C401.274 223.603 391.459 242.192 382.749 255.439C372.394 271.188 345.495 301.574 317.336 329.333C302.762 343.7 289.338 355.864 278.515 364.509C260.73 378.716 253.8 380.359 250.135 380.359C246.227 380.359 239.48 378.553 221.864 364.47C211.016 355.797 197.546 343.614 182.91 329.238C154.496 301.328 127.499 270.982 117.26 255.442C104.319 235.806 99.04 217.846 100.142 197.206C101.249 176.53 110.004 157.116 124.795 142.538C139.774 127.774 159.319 119.642 179.829 119.642C212.409 119.642 234.998 145.369 245.852 157.732L245.885 157.769C247.369 159.459 248.978 161.29 250.167 162.52C251.664 161.089 253.814 158.744 255.649 156.741C267.533 143.775 289.655 119.641 320.178 119.641C340.688 119.641 360.234 127.773 375.213 142.537Z" fill="white"/>
</svg>
